# Blender v2.76 (sub 0) OBJ File: 'arrow.blend'
# www.blender.org
mtllib arrow.mtl
o Cone
v 0.000000 0.500000 6.000000
v 0.097545 0.500000 6.000000
v 0.191342 0.500000 6.000000
v 0.277785 0.500000 6.000000
v 0.353553 0.500000 6.000000
v 0.415735 0.500000 6.000000
v 0.461940 0.500000 6.000000
v 0.490393 0.500000 6.000000
v 0.500000 0.500000 6.000000
v 0.000000 1.500000 6.000000
v 0.490393 0.500000 6.000000
v 0.461940 0.500000 6.000000
v 0.415735 0.500000 6.000000
v 0.353553 0.500000 6.000000
v 0.277785 0.500000 6.000000
v 0.191342 0.500000 6.000000
v 0.097545 0.500000 6.000000
v -0.000000 0.500000 6.000000
v -0.097545 0.500000 6.000000
v -0.191342 0.500000 6.000000
v -0.277785 0.500000 6.000000
v -0.353554 0.500000 6.000000
v -0.415735 0.500000 6.000000
v -0.461940 0.500000 6.000000
v -0.490393 0.500000 6.000000
v -0.500000 0.500000 6.000000
v -0.490393 0.500000 6.000000
v -0.461940 0.500000 6.000000
v -0.415734 0.500000 6.000000
v -0.353553 0.500000 6.000000
v -0.277785 0.500000 6.000000
v -0.191341 0.500000 6.000000
v -0.097544 0.500000 6.000000
v 0.250000 0.500000 6.000000
v 0.250000 -0.500000 6.000000
v -0.250000 -0.500000 6.000000
v -0.250000 0.500000 6.000000
v 0.250000 0.500000 6.000000
v 0.250000 -0.500000 6.000000
v -0.250000 -0.500000 6.000000
v -0.250000 0.500000 6.000000
vn 0.000000 0.000000 -1.000000
vn 0.000000 0.000000 1.000000
vn -0.993700 0.000000 -0.111800
usemtl Material
s off
f 32//1 10//1 33//1
f 1//1 10//1 2//1
f 31//1 10//1 32//1
f 30//1 10//1 31//1
f 29//1 10//1 30//1
f 28//1 10//1 29//1
f 27//1 10//1 28//1
f 26//1 10//1 27//1
f 25//2 10//2 26//2
f 24//2 10//2 25//2
f 23//2 10//2 24//2
f 22//2 10//2 23//2
f 21//2 10//2 22//2
f 20//2 10//2 21//2
f 19//2 10//2 20//2
f 18//2 10//2 19//2
f 17//2 10//2 18//2
f 16//2 10//2 17//2
f 15//2 10//2 16//2
f 14//2 10//2 15//2
f 13//2 10//2 14//2
f 12//2 10//2 13//2
f 11//2 10//2 12//2
f 9//2 10//2 11//2
f 8//1 10//1 9//1
f 7//1 10//1 8//1
f 6//1 10//1 7//1
f 5//1 10//1 6//1
f 4//1 10//1 5//1
f 3//1 10//1 4//1
f 33//1 10//1 1//1
f 2//1 10//1 3//1
f 1//2 2//2 3//2 4//2 5//2 6//2 7//2 8//2 9//2 11//2 12//2 13//2 14//2 15//2 16//2 17//2 18//2 19//2 20//2 21//2 22//2 23//2 24//2 25//2 26//2 27//2 28//2 29//2 30//2 31//2 32//2 33//2
f 34//1 35//1 36//1 37//1
f 38//2 41//2 40//2 39//2
f 34//2 38//2 39//2 35//2
f 35//1 39//1 40//1 36//1
f 36//3 40//3 41//3 37//3
f 38//2 34//2 37//2 41//2
