# Blender v2.76 (sub 0) OBJ File: 'junctionCircle.blend'
# www.blender.org
mtllib junctionCircle.mtl
o Cylinder
v 0.000000 0.000000 -0.375000
v 0.073159 0.000000 -0.367794
v 0.143506 0.000000 -0.346455
v 0.208339 0.000000 -0.311801
v 0.265165 0.000000 -0.265165
v 0.311801 0.000000 -0.208339
v 0.346455 0.000000 -0.143506
v 0.367794 0.000000 -0.073159
v 0.375000 0.000000 -0.000000
v 0.367794 0.000000 0.073159
v 0.346455 0.000000 0.143506
v 0.311801 0.000000 0.208339
v 0.265165 0.000000 0.265165
v 0.208339 0.000000 0.311801
v 0.143506 0.000000 0.346455
v 0.073159 0.000000 0.367794
v -0.000000 0.000000 0.375000
v -0.073159 0.000000 0.367794
v -0.143506 0.000000 0.346455
v -0.208339 0.000000 0.311801
v -0.265165 0.000000 0.265165
v -0.311801 0.000000 0.208339
v -0.346455 0.000000 0.143506
v -0.367795 0.000000 0.073159
v -0.375000 0.000000 -0.000000
v -0.367794 0.000000 -0.073159
v -0.346455 0.000000 -0.143507
v -0.311801 0.000000 -0.208339
v -0.265165 0.000000 -0.265165
v -0.208338 0.000000 -0.311801
v -0.143506 0.000000 -0.346455
v -0.073158 0.000000 -0.367795
vn 0.000000 1.000000 0.000000
usemtl Material
s off
f 2//1 1//1 32//1 31//1 30//1 29//1 28//1 27//1 26//1 25//1 24//1 23//1 22//1 21//1 20//1 19//1 18//1 17//1 16//1 15//1 14//1 13//1 12//1 11//1 10//1 9//1 8//1 7//1 6//1 5//1 4//1 3//1
