# Blender v2.76 (sub 0) OBJ File: 'table.blend'
# www.blender.org
mtllib table.mtl
o table
v -47.999981 24.010931 -0.033029
v 48.000019 24.010935 -0.033152
v 48.000015 24.010935 -2.033152
v -47.999985 24.010931 -2.033030
v 48.000023 -23.989065 -0.033152
v 48.000019 -23.989065 -2.033152
v -47.999977 -23.989069 -0.033029
v -47.999981 -23.989069 -2.033030
v -42.999981 19.010931 -1.033036
v -40.999981 19.010931 -1.033039
v -41.000027 19.010931 -37.033039
v -43.000027 19.010931 -37.033039
v -40.999981 17.010931 -1.033039
v -41.000027 17.010931 -37.033039
v -42.999981 17.010931 -1.033036
v -43.000027 17.010931 -37.033039
v -42.999981 -16.989069 -1.033036
v -40.999981 -16.989069 -1.033039
v -41.000027 -16.989069 -37.033039
v -43.000027 -16.989069 -37.033039
v -40.999981 -18.989069 -1.033039
v -41.000027 -18.989069 -37.033039
v -42.999981 -18.989069 -1.033036
v -43.000027 -18.989069 -37.033039
v 41.000019 19.010935 -1.033143
v 43.000019 19.010935 -1.033146
v 42.999973 19.010935 -37.033146
v 40.999973 19.010935 -37.033146
v 43.000019 17.010935 -1.033146
v 42.999973 17.010935 -37.033146
v 41.000019 17.010935 -1.033143
v 40.999973 17.010935 -37.033146
v 41.000019 -16.989065 -1.033143
v 43.000019 -16.989065 -1.033146
v 42.999973 -16.989065 -37.033146
v 40.999973 -16.989065 -37.033146
v 43.000019 -18.989065 -1.033146
v 42.999973 -18.989065 -37.033146
v 41.000019 -18.989065 -1.033143
v 40.999973 -18.989065 -37.033146
vt 0.000000 0.000000
vt 1.000000 0.000000
vt 1.000000 1.000000
vt 0.000000 1.000000
vt 0.033836 0.012005
vt 0.891774 0.012000
vt 0.891774 0.029874
vt 0.033836 0.029875
vt 0.909648 0.029874
vt 0.909648 0.458843
vt 0.891775 0.458843
vt 0.891775 0.476713
vt 0.033836 0.476717
vt 0.033836 0.458844
vt 0.015963 0.458844
vt 0.015963 0.029875
vt 0.864533 0.992907
vt 0.006598 0.992907
vt 0.006598 0.563939
vt 0.864533 0.563939
vn -0.577300 0.577300 0.577300
vn 0.577300 0.577300 0.577300
vn 0.577300 0.577300 -0.577300
vn -0.577300 0.577300 -0.577300
vn 0.577300 -0.577300 0.577300
vn 0.577300 -0.577300 -0.577300
vn -0.577300 -0.577300 0.577300
vn -0.577300 -0.577300 -0.577300
usemtl patte
s 1
f 9/1/1 10/2/2 11/3/3 12/4/4
f 10/1/2 13/2/5 14/3/6 11/4/3
f 13/1/5 15/2/7 16/3/8 14/4/6
f 15/1/7 9/2/1 12/3/4 16/4/8
f 12/1/4 11/2/3 14/3/6 16/4/8
f 15/1/7 13/2/5 10/3/2 9/4/1
f 17/1/1 18/2/2 19/3/3 20/4/4
f 18/1/2 21/2/5 22/3/6 19/4/3
f 21/1/5 23/2/7 24/3/8 22/4/6
f 23/1/7 17/2/1 20/3/4 24/4/8
f 20/1/4 19/2/3 22/3/6 24/4/8
f 23/1/7 21/2/5 18/3/2 17/4/1
f 25/1/1 26/2/2 27/3/3 28/4/4
f 26/1/2 29/2/5 30/3/6 27/4/3
f 29/1/5 31/2/7 32/3/8 30/4/6
f 31/1/7 25/2/1 28/3/4 32/4/8
f 28/1/4 27/2/3 30/3/6 32/4/8
f 31/1/7 29/2/5 26/3/2 25/4/1
f 33/1/1 34/2/2 35/3/3 36/4/4
f 34/1/2 37/2/5 38/3/6 35/4/3
f 37/1/5 39/2/7 40/3/8 38/4/6
f 39/1/7 33/2/1 36/3/4 40/4/8
f 36/1/4 35/2/3 38/3/6 40/4/8
f 39/1/7 37/2/5 34/3/2 33/4/1
usemtl base
f 1/5/1 2/6/2 3/7/3 4/8/4
f 2/9/2 5/10/5 6/11/6 3/7/3
f 5/12/5 7/13/7 8/14/8 6/11/6
f 7/15/7 1/16/1 4/8/4 8/14/8
f 4/8/4 3/7/3 6/11/6 8/14/8
f 7/17/7 5/18/5 2/19/2 1/20/1
